<svg width="1200" height="300" viewBox="0 0 1200 300" fill="none" xmlns="http://www.w3.org/2000/svg">
  <!-- Solvency AI - Full Wordmark (Horizontal) -->
  
  <defs>
    <style>
      @import url('https://fonts.googleapis.com/css2?family=Inter:wght@400;600;700&display=swap');
    </style>
  </defs>
  
  <!-- Icon Mark (scaled down for wordmark) -->
  <g transform="translate(30, 30) scale(0.4)">
    <!-- S-curve mark -->
    <path d="
      M 156 128
      C 156 91.6 185.6 62 222 62
      L 356 62
      C 392.4 62 422 91.6 422 128
      C 422 164.4 392.4 194 356 194
      L 290 194
      C 273.4 194 260 207.4 260 224
      C 260 240.6 273.4 254 290 254
      L 356 254
      C 392.4 254 422 283.6 422 320
      L 422 384
      C 422 420.4 392.4 450 356 450
      L 222 450
      C 185.6 450 156 420.4 156 384
      C 156 347.6 185.6 318 222 318
      L 288 318
      C 304.6 318 318 304.6 318 288
      C 318 271.4 304.6 258 288 258
      L 222 258
      C 185.6 258 156 228.4 156 192
      L 156 128
    " stroke="#4A90E2" stroke-width="48" fill="none" stroke-linecap="round" stroke-linejoin="round"/>
    
    <!-- Accent dots -->
    <circle cx="340" cy="110" r="14" fill="#C9A959" opacity="0.8"/>
    <circle cx="238" cy="402" r="14" fill="#C9A959" opacity="0.8"/>
  </g>
  
  <!-- Text: SOLVENCY AI -->
  <g id="text">
    <text x="280" y="180" font-family="Inter, system-ui, -apple-system, sans-serif" 
          font-size="96" font-weight="700" fill="#E8EDF2" letter-spacing="-2">
      SOLVENCY
    </text>
    <text x="780" y="180" font-family="Inter, system-ui, -apple-system, sans-serif" 
          font-size="96" font-weight="400" fill="#4A90E2" letter-spacing="0">
      AI
    </text>
  </g>
  
  <!-- Tagline (optional) -->
  <text x="280" y="220" font-family="Inter, system-ui, -apple-system, sans-serif" 
        font-size="18" font-weight="400" fill="#9BA8B8" letter-spacing="3" opacity="0.7">
    YIELD-BEARING INFRASTRUCTURE
  </text>
</svg>
